<?xml version="1.0" encoding="utf-8"?>
<!-- Generator: Adobe Illustrator 21.0.0, SVG Export Plug-In . SVG Version: 6.00 Build 0)  -->
<svg version="1.1" id="Layer_1" xmlns="http://www.w3.org/2000/svg" xmlns:xlink="http://www.w3.org/1999/xlink" x="0px" y="0px"
	 viewBox="0 0 351 333.6" style="enable-background:new 0 0 351 333.6;" xml:space="preserve">
<style type="text/css">
	.st0{fill:none;}
	.st1{fill:url(#SVGID_1_);}
	.st2{fill:url(#SVGID_2_);}
	.st3{stroke:#000000;stroke-width:8;stroke-miterlimit:10;}
	.st4{fill:#FFFFFF;}
</style>
<g>
	<polygon class="st0" points="327,169.6 85.9,221.5 180,317.8 	"/>
	<path class="st0" d="M37.6,161.7c60.7-11,132.8-25.1,168.9-36.3c20.3-6.3,41.8-13.2,61.5-19.7l-91.2-84.3L37.6,161.7z"/>
	<linearGradient id="SVGID_1_" gradientUnits="userSpaceOnUse" x1="21.2956" y1="87.2483" x2="343.3503" y2="87.2483">
		<stop  offset="0" style="stop-color:#EF4136"/>
		<stop  offset="0.1953" style="stop-color:#EF4436"/>
		<stop  offset="0.3628" style="stop-color:#F04F37"/>
		<stop  offset="0.5201" style="stop-color:#F16039"/>
		<stop  offset="0.6711" style="stop-color:#F3743A"/>
		<stop  offset="0.8177" style="stop-color:#F68B3D"/>
		<stop  offset="0.9591" style="stop-color:#FAA73F"/>
		<stop  offset="1" style="stop-color:#FBB040"/>
	</linearGradient>
	<path class="st1" d="M176.7,21.4l91.2,84.3c2.9-1,5.8-1.9,8.7-2.9L176.5,10.3L23.9,164.2c4.5-0.8,9.1-1.6,13.7-2.5L176.7,21.4z"/>
	<linearGradient id="SVGID_2_" gradientUnits="userSpaceOnUse" x1="21.2956" y1="247.8513" x2="343.3503" y2="247.8513">
		<stop  offset="0" style="stop-color:#EF4136"/>
		<stop  offset="0.1953" style="stop-color:#EF4436"/>
		<stop  offset="0.3628" style="stop-color:#F04F37"/>
		<stop  offset="0.5201" style="stop-color:#F16039"/>
		<stop  offset="0.6711" style="stop-color:#F3743A"/>
		<stop  offset="0.8177" style="stop-color:#F68B3D"/>
		<stop  offset="0.9591" style="stop-color:#FAA73F"/>
		<stop  offset="1" style="stop-color:#FBB040"/>
	</linearGradient>
	<polygon class="st2" points="180,317.8 85.9,221.5 76.7,223.5 179.9,329.2 341.3,166.5 327,169.6 	"/>
</g>
<line class="st0" x1="177" y1="363.5" x2="177" y2="281.8"/>
<path class="st3" d="M208.7,105.3"/>
<g>
	<path class="st4" d="M58.3,180.3l-19.5,32.6L48,211l18.8-32.8C63.8,179,61,179.7,58.3,180.3z"/>
	<path class="st4" d="M192.3,145.7c-6.7,1.7-13.1,3.4-19.4,5h0c0,0-36.7,9.9-75.9,20l-20.8,34.4l71.4-15.1
		c64.5-14.3,122.6-34.7,122.6-34.7l-90.6,85.6l-37-34.3l-31.8,7l68.5,66.4c0,0,33.1-26.8,89.2-86.1s76.6-91.6,76.6-91.6
		S277,123.9,192.3,145.7z"/>
	<path class="st4" d="M77.2,175.7l-19.9,33.4l9.5-2l20.5-33.9C83.9,174,80.5,174.8,77.2,175.7z"/>
	<path class="st4" d="M29.6,187.1L8.9,219.2c0,0,2.1-0.4,5.8-1.2l14.8-3.1l19.3-32.3C40.6,184.6,34.3,186,29.6,187.1z"/>
	<polygon class="st4" points="179.5,93.5 179.5,53.6 62.9,166.5 120.5,151.2 	"/>
</g>
</svg>
